<mxfile host="app.diagrams.net" modified="2020-09-18T13:39:28.663Z" agent="5.0 (Windows NT 6.3) AppleWebKit/537.36 (KHTML, like Gecko) Chrome/84.0.4147.135 YaBrowser/20.8.3.112 Yowser/2.5 Safari/537.36" etag="fT57e6POoA0iFpcTqS-b" version="13.7.3" type="github">
  <diagram id="8iE2sE2ucI7-zzb2S22P" name="Page-1">
    <mxGraphModel dx="1945" dy="462" grid="1" gridSize="10" guides="1" tooltips="1" connect="1" arrows="1" fold="1" page="1" pageScale="1" pageWidth="827" pageHeight="1169" math="0" shadow="0">
      <root>
        <mxCell id="0" />
        <mxCell id="1" parent="0" />
        <mxCell id="dPP7O0F19J6Pa7fnY7nh-1" value="&lt;span style=&quot;font-size: 29px&quot;&gt;&lt;br&gt;Начало&lt;br&gt;&lt;/span&gt;" style="ellipse;whiteSpace=wrap;html=1;aspect=fixed;" vertex="1" parent="1">
          <mxGeometry x="334" y="20" width="136" height="136" as="geometry" />
        </mxCell>
        <mxCell id="dPP7O0F19J6Pa7fnY7nh-2" value="" style="endArrow=classic;html=1;" edge="1" parent="1">
          <mxGeometry width="50" height="50" relative="1" as="geometry">
            <mxPoint x="401.5" y="202" as="sourcePoint" />
            <mxPoint x="402" y="220" as="targetPoint" />
            <Array as="points">
              <mxPoint x="402" y="156" />
              <mxPoint x="402.5" y="190" />
            </Array>
          </mxGeometry>
        </mxCell>
        <mxCell id="dPP7O0F19J6Pa7fnY7nh-3" value="&lt;font style=&quot;font-size: 20px&quot;&gt;Объявление&lt;br&gt;A, B, C&lt;/font&gt;" style="rounded=1;whiteSpace=wrap;html=1;" vertex="1" parent="1">
          <mxGeometry x="270" y="220" width="270" height="60" as="geometry" />
        </mxCell>
        <mxCell id="dPP7O0F19J6Pa7fnY7nh-4" value="" style="endArrow=classic;html=1;" edge="1" parent="1">
          <mxGeometry width="50" height="50" relative="1" as="geometry">
            <mxPoint x="401.5" y="280" as="sourcePoint" />
            <mxPoint x="401.5" y="350" as="targetPoint" />
            <Array as="points">
              <mxPoint x="401.5" y="310" />
            </Array>
          </mxGeometry>
        </mxCell>
        <mxCell id="dPP7O0F19J6Pa7fnY7nh-5" value="A&amp;gt;B" style="rhombus;whiteSpace=wrap;html=1;" vertex="1" parent="1">
          <mxGeometry x="312" y="350" width="180" height="140" as="geometry" />
        </mxCell>
        <mxCell id="dPP7O0F19J6Pa7fnY7nh-10" value="" style="endArrow=classic;html=1;" edge="1" parent="1" target="dPP7O0F19J6Pa7fnY7nh-17">
          <mxGeometry width="50" height="50" relative="1" as="geometry">
            <mxPoint x="492" y="420" as="sourcePoint" />
            <mxPoint x="640" y="480" as="targetPoint" />
            <Array as="points">
              <mxPoint x="640" y="420" />
            </Array>
          </mxGeometry>
        </mxCell>
        <mxCell id="dPP7O0F19J6Pa7fnY7nh-12" value="" style="endArrow=classic;html=1;entryX=0.5;entryY=0;entryDx=0;entryDy=0;" edge="1" parent="1" target="dPP7O0F19J6Pa7fnY7nh-16">
          <mxGeometry width="50" height="50" relative="1" as="geometry">
            <mxPoint x="312" y="419.5" as="sourcePoint" />
            <mxPoint x="120" y="420" as="targetPoint" />
            <Array as="points">
              <mxPoint x="120" y="420" />
            </Array>
          </mxGeometry>
        </mxCell>
        <mxCell id="dPP7O0F19J6Pa7fnY7nh-14" value="true" style="text;html=1;align=center;verticalAlign=middle;resizable=0;points=[];autosize=1;" vertex="1" parent="1">
          <mxGeometry x="250" y="400" width="40" height="20" as="geometry" />
        </mxCell>
        <mxCell id="dPP7O0F19J6Pa7fnY7nh-15" value="false" style="text;html=1;align=center;verticalAlign=middle;resizable=0;points=[];autosize=1;" vertex="1" parent="1">
          <mxGeometry x="520" y="400" width="40" height="20" as="geometry" />
        </mxCell>
        <mxCell id="dPP7O0F19J6Pa7fnY7nh-16" value="A &amp;gt; C" style="rhombus;whiteSpace=wrap;html=1;" vertex="1" parent="1">
          <mxGeometry x="40" y="490" width="160" height="150" as="geometry" />
        </mxCell>
        <mxCell id="dPP7O0F19J6Pa7fnY7nh-17" value="B &amp;gt; C" style="rhombus;whiteSpace=wrap;html=1;" vertex="1" parent="1">
          <mxGeometry x="550" y="480" width="180" height="160" as="geometry" />
        </mxCell>
        <mxCell id="dPP7O0F19J6Pa7fnY7nh-23" value="" style="endArrow=classic;html=1;exitX=1;exitY=0.5;exitDx=0;exitDy=0;" edge="1" parent="1" source="dPP7O0F19J6Pa7fnY7nh-16">
          <mxGeometry width="50" height="50" relative="1" as="geometry">
            <mxPoint x="230" y="620" as="sourcePoint" />
            <mxPoint x="280" y="650" as="targetPoint" />
            <Array as="points">
              <mxPoint x="280" y="565" />
            </Array>
          </mxGeometry>
        </mxCell>
        <mxCell id="dPP7O0F19J6Pa7fnY7nh-24" value="напечатать C" style="rounded=1;whiteSpace=wrap;html=1;" vertex="1" parent="1">
          <mxGeometry x="220" y="650" width="120" height="60" as="geometry" />
        </mxCell>
        <mxCell id="dPP7O0F19J6Pa7fnY7nh-25" value="false" style="text;html=1;align=center;verticalAlign=middle;resizable=0;points=[];autosize=1;" vertex="1" parent="1">
          <mxGeometry x="220" y="540" width="40" height="20" as="geometry" />
        </mxCell>
        <mxCell id="dPP7O0F19J6Pa7fnY7nh-26" value="напечатать&lt;br&gt;А" style="rounded=1;whiteSpace=wrap;html=1;" vertex="1" parent="1">
          <mxGeometry x="-90" y="650" width="120" height="60" as="geometry" />
        </mxCell>
        <mxCell id="dPP7O0F19J6Pa7fnY7nh-27" value="" style="endArrow=classic;html=1;exitX=0;exitY=0.5;exitDx=0;exitDy=0;" edge="1" parent="1" source="dPP7O0F19J6Pa7fnY7nh-16">
          <mxGeometry width="50" height="50" relative="1" as="geometry">
            <mxPoint x="-40" y="560" as="sourcePoint" />
            <mxPoint x="-40" y="650" as="targetPoint" />
            <Array as="points">
              <mxPoint x="-40" y="565" />
            </Array>
          </mxGeometry>
        </mxCell>
        <mxCell id="dPP7O0F19J6Pa7fnY7nh-28" value="true" style="text;html=1;align=center;verticalAlign=middle;resizable=0;points=[];autosize=1;" vertex="1" parent="1">
          <mxGeometry x="-20" y="540" width="40" height="20" as="geometry" />
        </mxCell>
        <mxCell id="dPP7O0F19J6Pa7fnY7nh-29" value="Напечатать&lt;br&gt;В" style="rounded=1;whiteSpace=wrap;html=1;" vertex="1" parent="1">
          <mxGeometry x="400" y="650" width="120" height="60" as="geometry" />
        </mxCell>
        <mxCell id="dPP7O0F19J6Pa7fnY7nh-30" value="Напечатать&amp;nbsp;&lt;br&gt;С" style="rounded=1;whiteSpace=wrap;html=1;" vertex="1" parent="1">
          <mxGeometry x="770" y="650" width="120" height="60" as="geometry" />
        </mxCell>
        <mxCell id="dPP7O0F19J6Pa7fnY7nh-31" value="" style="endArrow=classic;html=1;entryX=0.5;entryY=0;entryDx=0;entryDy=0;" edge="1" parent="1" target="dPP7O0F19J6Pa7fnY7nh-30">
          <mxGeometry width="50" height="50" relative="1" as="geometry">
            <mxPoint x="730" y="560" as="sourcePoint" />
            <mxPoint x="780" y="510" as="targetPoint" />
            <Array as="points">
              <mxPoint x="830" y="560" />
            </Array>
          </mxGeometry>
        </mxCell>
        <mxCell id="dPP7O0F19J6Pa7fnY7nh-32" value="false" style="text;html=1;align=center;verticalAlign=middle;resizable=0;points=[];autosize=1;" vertex="1" parent="1">
          <mxGeometry x="760" y="540" width="40" height="20" as="geometry" />
        </mxCell>
        <mxCell id="dPP7O0F19J6Pa7fnY7nh-33" value="" style="endArrow=classic;html=1;exitX=0;exitY=0.5;exitDx=0;exitDy=0;" edge="1" parent="1" source="dPP7O0F19J6Pa7fnY7nh-17">
          <mxGeometry width="50" height="50" relative="1" as="geometry">
            <mxPoint x="442" y="600" as="sourcePoint" />
            <mxPoint x="440" y="650" as="targetPoint" />
            <Array as="points">
              <mxPoint x="440" y="560" />
            </Array>
          </mxGeometry>
        </mxCell>
        <mxCell id="dPP7O0F19J6Pa7fnY7nh-34" value="true" style="text;html=1;align=center;verticalAlign=middle;resizable=0;points=[];autosize=1;" vertex="1" parent="1">
          <mxGeometry x="470" y="540" width="40" height="20" as="geometry" />
        </mxCell>
        <mxCell id="dPP7O0F19J6Pa7fnY7nh-36" value="" style="endArrow=none;html=1;" edge="1" parent="1">
          <mxGeometry width="50" height="50" relative="1" as="geometry">
            <mxPoint x="-40" y="810" as="sourcePoint" />
            <mxPoint x="830" y="810" as="targetPoint" />
            <Array as="points">
              <mxPoint x="390" y="810" />
            </Array>
          </mxGeometry>
        </mxCell>
        <mxCell id="dPP7O0F19J6Pa7fnY7nh-37" value="" style="endArrow=none;html=1;entryX=0.5;entryY=1;entryDx=0;entryDy=0;" edge="1" parent="1" target="dPP7O0F19J6Pa7fnY7nh-30">
          <mxGeometry width="50" height="50" relative="1" as="geometry">
            <mxPoint x="830" y="810" as="sourcePoint" />
            <mxPoint x="827" y="740" as="targetPoint" />
          </mxGeometry>
        </mxCell>
        <mxCell id="dPP7O0F19J6Pa7fnY7nh-38" value="" style="endArrow=none;html=1;entryX=0.42;entryY=0.994;entryDx=0;entryDy=0;entryPerimeter=0;" edge="1" parent="1" target="dPP7O0F19J6Pa7fnY7nh-26">
          <mxGeometry width="50" height="50" relative="1" as="geometry">
            <mxPoint x="-40" y="810" as="sourcePoint" />
            <mxPoint x="-20" y="740" as="targetPoint" />
          </mxGeometry>
        </mxCell>
        <mxCell id="dPP7O0F19J6Pa7fnY7nh-40" value="" style="endArrow=none;html=1;strokeColor=#000000;entryX=0.5;entryY=1;entryDx=0;entryDy=0;" edge="1" parent="1" target="dPP7O0F19J6Pa7fnY7nh-24">
          <mxGeometry width="50" height="50" relative="1" as="geometry">
            <mxPoint x="280" y="810" as="sourcePoint" />
            <mxPoint x="310" y="730" as="targetPoint" />
          </mxGeometry>
        </mxCell>
        <mxCell id="dPP7O0F19J6Pa7fnY7nh-42" value="" style="endArrow=none;html=1;shadow=0;strokeColor=#000000;entryX=0.5;entryY=1;entryDx=0;entryDy=0;" edge="1" parent="1" target="dPP7O0F19J6Pa7fnY7nh-29">
          <mxGeometry width="50" height="50" relative="1" as="geometry">
            <mxPoint x="460" y="810" as="sourcePoint" />
            <mxPoint x="470" y="740" as="targetPoint" />
          </mxGeometry>
        </mxCell>
        <mxCell id="dPP7O0F19J6Pa7fnY7nh-43" value="" style="endArrow=classic;html=1;shadow=0;strokeColor=#000000;" edge="1" parent="1">
          <mxGeometry width="50" height="50" relative="1" as="geometry">
            <mxPoint x="380" y="810" as="sourcePoint" />
            <mxPoint x="380" y="900" as="targetPoint" />
          </mxGeometry>
        </mxCell>
        <mxCell id="dPP7O0F19J6Pa7fnY7nh-44" value="&lt;font style=&quot;font-size: 33px&quot;&gt;конец&lt;/font&gt;" style="ellipse;whiteSpace=wrap;html=1;aspect=fixed;" vertex="1" parent="1">
          <mxGeometry x="300" y="900" width="170" height="170" as="geometry" />
        </mxCell>
      </root>
    </mxGraphModel>
  </diagram>
</mxfile>
